<?xml version="1.0" standalone="no"?>
<!DOCTYPE svg PUBLIC "-//W3C//DTD SVG 20010904//EN"
 "http://www.w3.org/TR/2001/REC-SVG-20010904/DTD/svg10.dtd">
<svg version="1.0" xmlns="http://www.w3.org/2000/svg"
 width="83.000000pt" height="150.000000pt" viewBox="0 0 83.000000 150.000000"
 preserveAspectRatio="xMidYMid meet">

<g transform="translate(0.000000,150.000000) scale(0.100000,-0.100000)"
fill="#FFFFFF" stroke="none">
<path d="M287 1480 c-32 -10 -75 -30 -96 -44 -32 -22 -44 -25 -83 -20 -55 8
-62 -1 -44 -52 12 -36 11 -43 -15 -99 -70 -150 -63 -369 16 -531 38 -78 150
-214 212 -257 125 -86 217 -67 354 76 132 136 185 253 196 427 7 110 -12 222
-51 298 -22 43 -23 51 -11 84 17 50 7 62 -43 54 -34 -5 -48 -1 -89 24 -96 59
-236 76 -346 40z m296 -55 c62 -31 133 -101 160 -158 28 -58 47 -148 47 -219
l0 -68 -29 0 c-35 0 -89 -35 -118 -78 -39 -58 -52 -161 -33 -267 l9 -50 -47
-43 c-56 -50 -117 -82 -159 -82 -16 0 -51 11 -78 25 -53 29 -127 104 -120 123
3 7 7 48 11 90 9 103 -12 176 -64 231 -28 30 -49 42 -80 47 l-42 7 0 66 c0
165 78 311 196 371 69 34 98 39 199 36 76 -2 99 -7 148 -31z m-473 -497 c65
-44 74 -68 78 -189 3 -64 0 -109 -5 -109 -12 0 -63 72 -92 127 -19 38 -50 149
-51 181 0 19 34 14 70 -10z m680 4 c0 -80 -104 -302 -141 -302 -13 0 -11 183
2 217 14 37 47 73 84 89 41 18 55 17 55 -4z"/>
<path d="M184 1212 c-82 -66 -39 -182 67 -182 47 0 89 47 89 100 0 81 -96 131
-156 82z m89 -14 c45 -24 56 -56 36 -101 -33 -73 -139 -47 -139 34 0 29 6 42
26 58 30 24 46 26 77 9z"/>
<path d="M202 1168 c-15 -15 -15 -61 0 -76 21 -21 66 -14 84 13 15 23 15 27 0
50 -18 27 -63 34 -84 13z"/>
<path d="M519 1201 c-23 -23 -29 -38 -29 -71 0 -53 42 -100 90 -100 85 0 133
76 95 150 -31 59 -107 69 -156 21z m115 -12 c32 -25 37 -87 9 -111 -65 -55
-155 4 -124 81 21 50 72 64 115 30z"/>
<path d="M544 1155 c-15 -23 -15 -27 0 -50 11 -17 26 -25 44 -25 35 0 52 16
52 50 0 34 -17 50 -52 50 -18 0 -33 -8 -44 -25z"/>
<path d="M396 1002 c-9 -14 5 -52 20 -52 8 0 14 9 14 20 0 11 0 23 1 28 0 11
-28 15 -35 4z"/>
<path d="M11 371 c-19 -12 -5 -31 24 -31 13 0 27 5 31 11 7 11 -12 29 -31 29
-5 0 -16 -4 -24 -9z"/>
<path d="M7 324 c-4 -4 -7 -74 -7 -156 l0 -148 35 0 36 0 -3 153 -3 152 -25 3
c-14 2 -29 0 -33 -4z"/>
<path d="M175 305 c-24 -23 -25 -31 -25 -133 0 -95 2 -111 20 -130 28 -30 90
-30 116 -1 15 17 20 40 22 123 4 99 3 104 -23 134 -34 40 -75 43 -110 7z m65
-129 c0 -52 -4 -97 -9 -100 -15 -10 -21 22 -21 110 0 68 3 84 15 84 12 0 15
-17 15 -94z"/>
<path d="M408 322 c-16 -3 -18 -18 -19 -120 -2 -146 -1 -153 19 -169 22 -16
64 -17 80 -1 9 9 15 9 24 0 17 -17 73 -15 88 3 8 10 12 56 11 147 -2 137 -8
156 -43 137 -16 -8 -18 -24 -18 -124 0 -70 -4 -115 -10 -115 -6 0 -10 44 -10
113 0 120 -8 144 -42 126 -16 -9 -18 -23 -18 -124 0 -70 -4 -115 -10 -115 -6
0 -10 45 -10 114 0 118 -6 137 -42 128z"/>
<path d="M712 318 c-13 -13 -18 -252 -6 -282 9 -23 109 -23 118 0 9 22 9 22
-24 39 l-30 16 0 109 c0 98 -2 110 -19 120 -24 13 -24 13 -39 -2z"/>
</g>
</svg>
