<?xml version="1.0" standalone="no"?>
<!DOCTYPE svg PUBLIC "-//W3C//DTD SVG 20010904//EN"
 "http://www.w3.org/TR/2001/REC-SVG-20010904/DTD/svg10.dtd">
<svg version="1.0" xmlns="http://www.w3.org/2000/svg"
 width="116.000000pt" height="150.000000pt" viewBox="0 0 116.000000 150.000000"
 preserveAspectRatio="xMidYMid meet">

<g transform="translate(0.000000,150.000000) scale(0.100000,-0.100000)"
fill="#06d9ff" stroke="none">
<path d="M450 1486 c-64 -14 -161 -57 -205 -90 -28 -22 -34 -23 -88 -13 -48 9
-60 8 -73 -5 -14 -13 -13 -20 5 -68 l20 -52 -30 -60 c-85 -169 -102 -445 -39
-645 43 -138 103 -234 232 -369 226 -236 372 -241 594 -20 104 105 161 179
209 274 111 219 111 562 -2 772 -23 44 -23 47 -8 89 8 24 15 54 15 67 0 27
-19 30 -95 15 -33 -6 -45 -3 -70 16 -116 86 -310 123 -465 89z m242 -47 c163
-34 299 -149 364 -309 28 -70 54 -209 54 -291 0 -58 -1 -59 -27 -59 -68 0
-168 -72 -207 -148 -35 -69 -45 -193 -24 -329 l11 -77 -63 -59 c-84 -79 -174
-122 -237 -113 -66 9 -127 43 -201 111 l-65 61 11 77 c22 142 11 259 -29 338
-36 73 -136 139 -209 139 -22 0 -23 1 -17 99 14 241 111 422 274 508 107 57
245 77 365 52z m-546 -729 c46 -23 85 -72 109 -139 15 -45 19 -206 6 -266 l-7
-30 -48 65 c-79 105 -146 270 -146 359 0 38 23 41 86 11z m956 14 c11 -10 -30
-171 -60 -236 -31 -68 -99 -174 -125 -196 -12 -10 -15 -6 -21 25 -11 69 -6
199 9 251 25 82 106 162 166 162 14 0 28 -3 31 -6z"/>
<path d="M285 1116 c-46 -21 -76 -60 -82 -104 -7 -53 1 -84 33 -121 72 -85
219 -45 240 66 21 109 -94 204 -191 159z m114 -42 c35 -25 52 -74 41 -116 -14
-47 -41 -69 -93 -75 -39 -5 -48 -1 -78 25 -29 26 -34 37 -34 77 0 40 5 51 33
76 38 34 93 39 131 13z"/>
<path d="M289 1041 c-51 -41 -17 -131 50 -131 37 0 71 38 71 78 0 63 -71 94
-121 53z"/>
<path d="M760 1112 c-46 -23 -80 -75 -80 -124 0 -131 155 -192 245 -98 27 28
30 38 30 95 0 54 -4 68 -25 90 -28 31 -78 55 -112 55 -13 0 -39 -8 -58 -18z
m132 -51 c28 -25 33 -36 33 -76 0 -40 -5 -51 -33 -76 -79 -71 -205 7 -172 107
25 76 112 99 172 45z"/>
<path d="M772 1040 c-30 -28 -29 -80 1 -108 49 -46 121 -14 121 53 0 66 -74
99 -122 55z"/>
<path d="M553 804 c-8 -23 9 -69 27 -69 21 0 38 64 19 76 -21 13 -39 11 -46
-7z"/>
</g>
</svg>
